<svg width="1194" height="410" viewBox="0 0 1194 410" fill="none" xmlns="http://www.w3.org/2000/svg">
<rect width="1194" height="410" rx="10" fill="url(#paint0_linear_106_6)"/>
<path d="M349.515 105.529H150.4V304.644H349.515V105.529Z" fill="#FF4156"/>
<path d="M276.634 282.741C272.917 282.741 269.864 281.878 267.474 280.153C265.085 278.427 263.89 276.502 263.89 274.378V196.126C263.89 193.737 265.085 191.812 267.474 190.352C269.864 188.892 272.917 188.162 276.634 188.162C280.218 188.162 283.271 188.892 285.793 190.352C288.315 191.812 289.576 193.737 289.576 196.126V274.378C289.576 276.502 288.315 278.427 285.793 280.153C283.271 281.878 280.218 282.741 276.634 282.741ZM276.634 167.055C272.651 167.055 269.266 165.794 266.479 163.272C263.824 160.75 262.497 157.83 262.497 154.511C262.497 151.192 263.824 148.272 266.479 145.75C269.266 143.228 272.651 141.967 276.634 141.967C280.483 141.967 283.736 143.228 286.39 145.75C289.178 148.272 290.572 151.192 290.572 154.511C290.572 157.83 289.178 160.75 286.39 163.272C283.736 165.794 280.483 167.055 276.634 167.055ZM321.94 282.741C318.224 282.741 315.17 281.878 312.781 280.153C310.392 278.427 309.197 276.502 309.197 274.378V196.126C309.197 193.737 310.392 191.812 312.781 190.352C315.17 188.892 318.224 188.162 321.94 188.162C324.994 188.162 327.648 188.892 329.905 190.352C332.162 191.812 333.29 193.737 333.29 196.126V202.1C335.281 198.25 338.533 194.798 343.047 191.746C347.693 188.56 353.334 186.967 359.971 186.967C366.077 186.967 371.719 188.825 376.896 192.542C382.206 196.126 386.387 201.038 389.44 207.277C392.626 213.383 394.219 220.086 394.219 227.387V274.378C394.219 277.166 392.892 279.29 390.237 280.75C387.582 282.077 384.595 282.741 381.277 282.741C378.356 282.741 375.502 282.077 372.715 280.75C369.927 279.29 368.533 277.166 368.533 274.378V227.387C368.533 222.874 366.808 218.759 363.356 215.042C360.038 211.325 355.989 209.467 351.21 209.467C347.228 209.467 343.511 211.06 340.06 214.246C336.608 217.431 334.883 221.812 334.883 227.387V274.378C334.883 276.502 333.556 278.427 330.901 280.153C328.379 281.878 325.392 282.741 321.94 282.741ZM452.846 284.533C445.147 284.533 438.045 282.675 431.541 278.958C425.036 275.108 419.793 270.064 415.811 263.825C411.828 257.586 409.837 250.883 409.837 243.715V227.387C409.837 220.219 411.762 213.582 415.612 207.476C419.594 201.237 424.837 196.259 431.342 192.542C437.846 188.825 445.014 186.967 452.846 186.967C460.545 186.967 467.647 188.825 474.151 192.542C480.788 196.126 486.098 201.038 490.081 207.277C494.063 213.383 496.054 220.086 496.054 227.387V243.715C496.054 250.75 494.063 257.387 490.081 263.626C486.098 269.865 480.788 274.909 474.151 278.759C467.647 282.608 460.545 284.533 452.846 284.533ZM452.846 262.033C457.625 262.033 461.74 260.175 465.191 256.458C468.642 252.608 470.368 248.36 470.368 243.715V227.387C470.368 222.874 468.642 218.759 465.191 215.042C461.872 211.325 457.758 209.467 452.846 209.467C448.067 209.467 443.952 211.325 440.501 215.042C437.182 218.759 435.523 222.874 435.523 227.387V243.715C435.523 248.36 437.182 252.608 440.501 256.458C443.952 260.175 448.067 262.033 452.846 262.033ZM549.642 284.931C546.99 284.931 544.533 284.533 542.277 283.737C540.153 283.073 538.693 281.945 537.896 280.352L503.847 201.502C503.184 200.44 502.852 199.246 502.852 197.918C502.852 195.927 503.781 194.135 505.64 192.542C507.631 190.816 509.954 189.489 512.609 188.56C515.264 187.498 517.719 186.967 519.976 186.967C521.569 186.967 523.029 187.365 524.356 188.162C525.817 188.825 526.812 189.887 527.343 191.347L549.642 249.091L571.744 191.746C572.939 188.56 575.396 186.967 579.111 186.967C580.84 186.967 583.03 187.498 585.682 188.56C588.47 189.489 590.927 190.816 593.049 192.542C595.176 194.268 596.235 196.126 596.235 198.117C596.235 199.179 595.972 200.308 595.439 201.502L561.191 280.352C560.53 281.812 559.068 282.94 556.81 283.737C554.557 284.533 552.167 284.931 549.642 284.931ZM651.111 284.533C641.685 284.533 633.322 282.874 626.023 279.555C618.855 276.104 613.212 271.325 609.098 265.219C604.98 258.98 602.926 251.812 602.926 243.715V226.79C602.926 219.622 604.849 213.051 608.7 207.078C612.682 200.971 617.923 196.126 624.43 192.542C631.064 188.825 638.432 186.967 646.532 186.967C653.831 186.967 660.601 188.56 666.841 191.746C673.078 194.931 678.123 199.312 681.974 204.887C685.821 210.462 687.749 216.967 687.749 224.401C687.749 229.976 686.817 234.024 684.961 236.547C683.101 239.069 680.712 240.661 677.793 241.325C674.87 241.856 671.951 242.122 669.032 242.122H628.611V245.108C628.611 250.816 630.734 255.462 634.983 259.047C639.364 262.498 645.003 264.224 651.908 264.224C656.288 264.224 659.936 263.626 662.859 262.431C665.778 261.104 668.235 259.843 670.226 258.648C672.349 257.321 674.408 256.657 676.399 256.657C679.449 256.657 681.839 258.051 683.567 260.839C685.291 263.626 686.156 266.016 686.156 268.007C686.156 270.263 684.694 272.719 681.775 275.374C678.987 277.896 674.938 280.086 669.629 281.945C664.452 283.67 658.28 284.533 651.111 284.533ZM628.611 226.989H657.682C659.805 226.989 661.33 226.657 662.262 225.993C663.19 225.197 663.656 223.737 663.656 221.613C663.656 216.967 661.864 213.184 658.28 210.263C654.827 207.343 650.777 205.883 646.133 205.883C641.486 205.883 637.372 207.277 633.788 210.064C630.336 212.852 628.611 216.635 628.611 221.414V226.989ZM743.17 284.533C733.083 284.533 724.852 282.741 718.48 279.157C712.108 275.573 707.397 270.728 704.343 264.622C701.292 258.383 699.763 251.414 699.763 243.715V227.785C699.763 220.219 701.292 213.383 704.343 207.277C707.397 201.038 712.045 196.126 718.281 192.542C724.653 188.825 732.816 186.967 742.772 186.967C749.012 186.967 754.52 187.763 759.299 189.356C764.213 190.816 767.996 192.741 770.648 195.131C773.436 197.387 774.83 199.843 774.83 202.498C774.83 204.887 773.902 207.608 772.042 210.662C770.186 213.582 767.729 215.042 764.675 215.042C763.217 215.042 761.688 214.577 760.095 213.648C758.637 212.719 756.71 211.79 754.321 210.861C751.931 209.931 748.745 209.467 744.763 209.467C737.993 209.467 733.083 211.126 730.029 214.445C726.978 217.631 725.449 222.077 725.449 227.785V243.715C725.449 249.423 726.978 253.936 730.029 257.254C733.214 260.44 738.192 262.033 744.962 262.033C749.08 262.033 752.266 261.569 754.52 260.639C756.778 259.577 758.637 258.582 760.095 257.653C761.688 256.591 763.281 256.06 764.874 256.06C768.458 256.06 771.182 257.454 773.037 260.241C775.029 263.029 776.024 265.683 776.024 268.206C776.024 270.86 774.567 273.449 771.644 275.971C768.856 278.493 764.941 280.551 759.896 282.144C754.986 283.737 749.411 284.533 743.17 284.533ZM825.727 282.741C813.78 282.741 804.621 280.219 798.249 275.175C792.009 269.998 788.891 261.701 788.891 250.285V153.914C788.891 151.524 790.285 149.599 793.072 148.139C795.86 146.679 798.715 145.949 801.634 145.949C804.82 145.949 807.739 146.679 810.395 148.139C813.183 149.599 814.577 151.524 814.577 153.914V188.162H838.072C840.195 188.162 841.788 189.157 842.851 191.148C844.046 193.006 844.643 195.131 844.643 197.52C844.643 199.909 844.046 202.1 842.851 204.091C841.788 205.949 840.195 206.878 838.072 206.878H814.577V250.285C814.577 254.268 815.373 257.055 816.966 258.648C818.691 260.241 821.614 261.038 825.727 261.038H833.493C837.208 261.038 839.932 262.166 841.657 264.423C843.516 266.679 844.444 269.135 844.444 271.79C844.444 274.577 843.516 277.099 841.657 279.356C839.932 281.613 837.208 282.741 833.493 282.741H825.727ZM895.995 284.533C888.293 284.533 881.193 282.675 874.69 278.958C868.183 275.108 862.942 270.064 858.96 263.825C854.977 257.586 852.986 250.883 852.986 243.715V227.387C852.986 220.219 854.91 213.582 858.761 207.476C862.743 201.237 867.983 196.259 874.491 192.542C880.994 188.825 888.162 186.967 895.995 186.967C903.693 186.967 910.793 188.825 917.3 192.542C923.935 196.126 929.247 201.038 933.23 207.277C937.212 213.383 939.203 220.086 939.203 227.387V243.715C939.203 250.75 937.212 257.387 933.23 263.626C929.247 269.865 923.935 274.909 917.3 278.759C910.793 282.608 903.693 284.533 895.995 284.533ZM895.995 262.033C900.774 262.033 904.887 260.175 908.34 256.458C911.789 252.608 913.517 248.36 913.517 243.715V227.387C913.517 222.874 911.789 218.759 908.34 215.042C905.019 211.325 900.905 209.467 895.995 209.467C891.216 209.467 887.099 211.325 883.65 215.042C880.329 218.759 878.672 222.874 878.672 227.387V243.715C878.672 248.36 880.329 252.608 883.65 256.458C887.099 260.175 891.216 262.033 895.995 262.033ZM968.087 282.741C964.503 282.741 961.516 281.878 959.126 280.153C956.737 278.427 955.542 276.502 955.542 274.378V196.126C955.542 193.737 956.737 191.812 959.126 190.352C961.516 188.892 964.503 188.162 968.087 188.162C971.272 188.162 973.996 188.892 976.25 190.352C978.508 191.812 979.635 193.737 979.635 196.126V204.29C981.762 200.042 985.011 196.126 989.392 192.542C993.772 188.825 998.687 186.967 1004.13 186.967H1010.3C1012.82 186.967 1015.01 188.095 1016.87 190.352C1018.73 192.476 1019.66 195.064 1019.66 198.117C1019.66 201.17 1018.73 203.825 1016.87 206.082C1015.01 208.338 1012.82 209.467 1010.3 209.467H1004.13C1000.28 209.467 996.56 210.662 992.976 213.051C989.527 215.44 986.672 218.891 984.414 223.405C982.291 227.785 981.228 232.962 981.228 238.936V274.378C981.228 276.502 979.97 278.427 977.445 280.153C974.924 281.878 971.806 282.741 968.087 282.741Z" fill="#1C274E"/>
<path d="M1045.35 252.126H1013.49V283.984H1045.35V252.126Z" fill="#FF4156"/>
<defs>
<linearGradient id="paint0_linear_106_6" x1="597" y1="410" x2="597" y2="-2.73126e-05" gradientUnits="userSpaceOnUse">
<stop stop-color="#FDF2F8"/>
<stop offset="1" stop-color="#F0F9FF"/>
</linearGradient>
</defs>
</svg>
